<svg width="505" height="380" viewBox="0 0 505 380" fill="none" xmlns="http://www.w3.org/2000/svg">
<path d="M4.79492 217.293C4.53451 217.033 4.4043 216.544 4.4043 215.828C4.4043 214.917 4.53451 214.461 4.79492 214.461C5.38086 214.461 6.16211 214.396 7.13867 214.266C8.11523 214.07 9.02669 213.81 9.87305 213.484C10.7194 213.159 11.2077 212.833 11.3379 212.508C11.7936 210.88 12.0215 207.951 12.0215 203.719V166.121C12.0215 164.233 11.9564 162.573 11.8262 161.141C11.7611 159.708 11.5983 158.569 11.3379 157.723C11.2077 157.332 10.6868 156.974 9.77539 156.648C8.92904 156.323 7.98503 156.062 6.94336 155.867C5.9668 155.672 5.18555 155.574 4.59961 155.574C4.33919 155.574 4.20898 155.184 4.20898 154.402C4.20898 153.556 4.33919 153.003 4.59961 152.742C6.29232 152.807 8.08268 152.872 9.9707 152.938C11.9238 152.938 14.0072 152.938 16.2207 152.938C17.7181 152.938 19.7363 152.905 22.2754 152.84C24.8145 152.775 27.8743 152.677 31.4551 152.547C35.1009 152.417 38.2585 152.319 40.9277 152.254C43.6621 152.189 45.9408 152.156 47.7637 152.156C47.8939 153.068 48.0892 154.174 48.3496 155.477C48.61 156.714 48.9355 158.081 49.3262 159.578C49.6517 161.141 49.9121 162.41 50.1074 163.387C50.3678 164.363 50.5306 165.047 50.5957 165.438C50.2702 165.763 49.6842 165.926 48.8379 165.926C47.9915 165.926 47.5358 165.698 47.4707 165.242C46.4941 161.661 45.127 159.383 43.3691 158.406C41.6113 157.365 39.2025 156.844 36.1426 156.844H29.5996C23.9355 156.844 21.071 157.267 21.0059 158.113C20.8757 158.895 20.7454 159.969 20.6152 161.336C20.5501 162.703 20.5176 164.363 20.5176 166.316V182.234C20.5176 182.625 21.8848 182.82 24.6191 182.82H29.7949C32.7246 182.82 34.8405 182.723 36.1426 182.527C37.4447 182.267 38.3561 181.714 38.877 180.867C39.3978 179.956 39.8861 178.523 40.3418 176.57L40.5371 175.691C40.6022 175.236 41.0905 175.008 42.002 175.008C42.7832 175.008 43.3366 175.171 43.6621 175.496V194.441C43.4017 194.702 42.8809 194.832 42.0996 194.832C41.2533 194.832 40.7324 194.572 40.5371 194.051C40.2767 193.139 40.0488 192.358 39.8535 191.707C39.6582 191.056 39.4954 190.503 39.3652 190.047C39.0397 189.135 38.7793 188.615 38.584 188.484C38.4538 188.354 38.1934 188.159 37.8027 187.898C36.8913 187.378 33.4408 187.117 27.4512 187.117C22.8288 187.117 20.5176 187.41 20.5176 187.996V203.426C20.5176 207.202 20.8105 210.229 21.3965 212.508C21.5267 212.768 22.015 213.061 22.8613 213.387C23.7077 213.712 24.6191 213.973 25.5957 214.168C26.5723 214.363 27.2559 214.461 27.6465 214.461C27.9069 214.461 28.0371 214.949 28.0371 215.926C28.0371 216.316 27.972 216.772 27.8418 217.293C24.5866 217.163 22.015 217.065 20.127 217C18.2389 216.87 17.0345 216.805 16.5137 216.805L4.79492 217.293ZM68.2715 217.684C65.2767 217.684 62.8027 216.902 60.8496 215.34C58.8965 213.712 57.9199 211.303 57.9199 208.113C57.9199 204.207 60.459 200.952 65.5371 198.348C67.7507 197.241 69.9316 196.362 72.0801 195.711C74.2936 195.06 76.5072 194.311 78.7207 193.465C79.3066 193.27 79.5996 192.781 79.5996 192V184.676C79.5996 182.592 78.9486 180.997 77.6465 179.891C76.3444 178.719 74.7819 178.133 72.959 178.133C71.0059 178.133 69.3783 178.816 68.0762 180.184C66.7741 181.486 66.123 183.211 66.123 185.359C66.123 187.638 64.7884 188.777 62.1191 188.777C60.2311 188.777 58.9616 188.159 58.3105 186.922C58.3105 185.555 58.8639 184.155 59.9707 182.723C61.1426 181.225 62.64 179.858 64.4629 178.621C66.2858 177.384 68.2715 176.375 70.4199 175.594C72.6335 174.812 74.8145 174.422 76.9629 174.422C80.5436 174.422 83.1152 175.301 84.6777 177.059C86.2402 178.751 87.0215 181.518 87.0215 185.359V207.918C87.0215 209.285 87.3796 210.424 88.0957 211.336C88.8118 212.247 89.7884 212.703 91.0254 212.703C91.8717 212.703 93.0111 212.247 94.4434 211.336C94.7038 211.336 94.834 211.596 94.834 212.117C94.834 212.964 94.6712 213.647 94.3457 214.168C91.6764 216.447 89.3978 217.586 87.5098 217.586C86.0124 217.586 84.5801 216.967 83.2129 215.73C81.8457 214.493 80.9017 213.191 80.3809 211.824C80.0553 212.085 79.6322 212.443 79.1113 212.898C78.6556 213.289 78.265 213.615 77.9395 213.875C76.5723 214.917 75.0749 215.828 73.4473 216.609C71.8848 217.326 70.1595 217.684 68.2715 217.684ZM71.9824 212.117C73.8053 212.117 75.5306 211.596 77.1582 210.555C78.7858 209.513 79.5996 208.406 79.5996 207.234V197.176C77.9069 197.827 76.2793 198.413 74.7168 198.934C73.2194 199.454 72.015 199.878 71.1035 200.203C69.9316 200.659 68.7923 201.473 67.6855 202.645C66.6439 203.816 66.123 205.151 66.123 206.648C66.123 208.602 66.709 210.001 67.8809 210.848C69.1178 211.694 70.485 212.117 71.9824 212.117ZM98.4473 217.293C98.1868 217.033 98.0566 216.479 98.0566 215.633C98.0566 214.852 98.1868 214.461 98.4473 214.461C98.9681 214.461 99.6842 214.363 100.596 214.168C101.507 213.973 102.354 213.712 103.135 213.387C103.916 213.061 104.339 212.768 104.404 212.508C104.665 211.596 104.827 210.555 104.893 209.383C105.023 208.211 105.088 206.974 105.088 205.672V187.215C105.088 184.741 104.632 182.983 103.721 181.941C103.07 181.16 102.288 180.639 101.377 180.379C100.531 180.118 99.7493 179.988 99.0332 179.988C98.3822 179.923 98.0566 179.826 98.0566 179.695C98.0566 178.133 98.252 177.319 98.6426 177.254C102.093 176.733 104.795 176.277 106.748 175.887C108.766 175.496 110.296 175.171 111.338 174.91L112.607 174.617C112.868 174.552 113.031 174.812 113.096 175.398C113.161 175.919 113.161 176.342 113.096 176.668C112.965 177.579 112.868 178.361 112.803 179.012C112.738 179.663 112.705 180.184 112.705 180.574C112.705 180.835 112.77 180.965 112.9 180.965C112.965 180.965 113.063 180.9 113.193 180.77C114.691 179.207 116.709 177.742 119.248 176.375C121.852 174.943 124.326 174.227 126.67 174.227C129.274 174.227 131.423 174.943 133.115 176.375C134.873 177.742 136.077 179.337 136.729 181.16C141.676 176.538 146.722 174.227 151.865 174.227C160.068 174.227 164.17 180.477 164.17 192.977V203.816C164.17 205.704 164.235 207.365 164.365 208.797C164.495 210.229 164.691 211.466 164.951 212.508C165.081 212.768 165.537 213.061 166.318 213.387C167.1 213.712 167.946 213.973 168.857 214.168C169.769 214.363 170.42 214.461 170.811 214.461C171.006 214.461 171.136 214.852 171.201 215.633C171.266 216.414 171.234 216.967 171.104 217.293L160.654 216.805L150.01 217.293C149.749 217.033 149.619 216.479 149.619 215.633C149.619 214.852 149.749 214.461 150.01 214.461C150.531 214.461 151.247 214.363 152.158 214.168C153.07 213.973 153.916 213.712 154.697 213.387C155.479 213.061 155.902 212.768 155.967 212.508C156.227 211.596 156.39 210.62 156.455 209.578C156.585 208.471 156.65 207.365 156.65 206.258V195.223C156.65 185.197 153.363 180.184 146.787 180.184C145.225 180.184 143.76 180.542 142.393 181.258C141.025 181.909 139.919 182.658 139.072 183.504C138.291 184.35 137.9 185.099 137.9 185.75C138.096 186.987 138.226 188.257 138.291 189.559C138.356 190.796 138.389 192.163 138.389 193.66V204.695C138.389 206.323 138.454 207.788 138.584 209.09C138.714 210.327 138.91 211.466 139.17 212.508C139.3 212.768 139.756 213.061 140.537 213.387C141.318 213.712 142.165 213.973 143.076 214.168C143.988 214.363 144.639 214.461 145.029 214.461C145.225 214.461 145.355 214.852 145.42 215.633C145.485 216.414 145.452 216.967 145.322 217.293L134.873 216.805L124.229 217.293C123.968 217.033 123.838 216.479 123.838 215.633C123.838 214.852 123.968 214.461 124.229 214.461C124.749 214.461 125.465 214.363 126.377 214.168C127.288 213.973 128.135 213.712 128.916 213.387C129.697 213.061 130.12 212.768 130.186 212.508C130.446 211.596 130.609 210.555 130.674 209.383C130.804 208.211 130.869 206.974 130.869 205.672V195.711C130.869 185.359 127.744 180.184 121.494 180.184C120.192 180.184 118.857 180.542 117.49 181.258C116.123 181.909 114.951 182.755 113.975 183.797C113.063 184.773 112.607 185.717 112.607 186.629V203.816C112.607 205.704 112.673 207.365 112.803 208.797C112.933 210.229 113.128 211.466 113.389 212.508C113.519 212.768 113.975 213.061 114.756 213.387C115.537 213.712 116.383 213.973 117.295 214.168C118.206 214.363 118.857 214.461 119.248 214.461C119.443 214.461 119.574 214.852 119.639 215.633C119.704 216.414 119.671 216.967 119.541 217.293L109.092 216.805L98.4473 217.293ZM177.061 217.293C176.8 217.033 176.67 216.479 176.67 215.633C176.67 214.852 176.8 214.461 177.061 214.461C177.581 214.461 178.298 214.363 179.209 214.168C180.12 213.973 180.967 213.712 181.748 213.387C182.529 213.061 182.952 212.768 183.018 212.508C183.278 211.596 183.441 210.555 183.506 209.383C183.636 208.211 183.701 206.974 183.701 205.672V187.215C183.701 184.741 183.245 182.983 182.334 181.941C181.683 181.095 180.902 180.574 179.99 180.379C179.079 180.118 178.298 179.988 177.646 179.988C176.995 179.923 176.67 179.826 176.67 179.695C176.67 178.133 176.865 177.319 177.256 177.254C180.706 176.733 183.343 176.31 185.166 175.984C186.989 175.594 188.617 175.236 190.049 174.91L191.221 174.617C191.481 174.552 191.644 174.812 191.709 175.398C191.774 175.984 191.774 176.408 191.709 176.668C191.579 177.97 191.449 179.207 191.318 180.379C191.253 181.551 191.221 182.658 191.221 183.699V203.816C191.221 205.704 191.286 207.365 191.416 208.797C191.546 210.229 191.742 211.466 192.002 212.508C192.132 212.768 192.588 213.061 193.369 213.387C194.15 213.712 194.997 213.973 195.908 214.168C196.82 214.363 197.471 214.461 197.861 214.461C198.057 214.461 198.187 214.852 198.252 215.633C198.317 216.414 198.285 216.967 198.154 217.293L187.705 216.805L177.061 217.293ZM186.729 163.973C185.426 163.973 184.287 163.484 183.311 162.508C182.334 161.531 181.846 160.392 181.846 159.09C181.846 157.723 182.334 156.583 183.311 155.672C184.287 154.695 185.426 154.207 186.729 154.207C188.096 154.207 189.235 154.695 190.146 155.672C191.123 156.583 191.611 157.723 191.611 159.09C191.611 160.392 191.123 161.531 190.146 162.508C189.235 163.484 188.096 163.973 186.729 163.973ZM202.939 217.293C202.679 217.033 202.549 216.479 202.549 215.633C202.549 214.852 202.679 214.461 202.939 214.461C203.46 214.461 204.176 214.363 205.088 214.168C205.999 213.973 206.846 213.712 207.627 213.387C208.408 213.061 208.831 212.768 208.896 212.508C209.157 211.596 209.32 210.555 209.385 209.383C209.515 208.211 209.58 206.974 209.58 205.672V163.387C209.58 161.173 209.385 159.09 208.994 157.137C208.734 156.095 207.074 155.574 204.014 155.574H203.135C202.744 155.574 202.549 155.216 202.549 154.5C202.549 153.458 202.744 152.938 203.135 152.938C207.041 152.482 209.938 151.961 211.826 151.375C213.714 150.789 215.016 150.268 215.732 149.812L216.709 149.227H216.904C217.165 149.227 217.425 149.422 217.686 149.812C217.946 150.138 218.109 150.464 218.174 150.789C217.458 152.938 217.1 155.77 217.1 159.285V203.816C217.1 205.704 217.165 207.365 217.295 208.797C217.425 210.229 217.62 211.466 217.881 212.508C218.011 212.768 218.467 213.061 219.248 213.387C220.029 213.712 220.876 213.973 221.787 214.168C222.699 214.363 223.35 214.461 223.74 214.461C223.936 214.461 224.066 214.852 224.131 215.633C224.196 216.414 224.163 216.967 224.033 217.293L213.584 216.805L202.939 217.293ZM237.314 239.168C235.947 239.168 234.938 238.745 234.287 237.898C233.636 237.052 233.311 236.206 233.311 235.359C233.311 233.992 233.766 232.951 234.678 232.234C240.081 232.234 243.662 229.435 245.42 223.836C245.745 222.859 246.136 221.688 246.592 220.32C247.048 218.953 247.406 217.846 247.666 217L233.701 182.82C233.376 182.039 233.05 181.388 232.725 180.867C232.399 180.281 232.074 179.826 231.748 179.5C231.162 178.914 230.251 178.426 229.014 178.035C227.842 177.645 226.898 177.449 226.182 177.449C225.921 177.449 225.791 177.026 225.791 176.18C225.791 175.398 225.921 174.878 226.182 174.617C227.939 174.682 229.665 174.78 231.357 174.91C233.115 174.975 234.906 175.008 236.729 175.008C238.812 175.008 240.602 174.975 242.1 174.91C243.597 174.78 244.964 174.682 246.201 174.617C246.331 175.138 246.396 175.626 246.396 176.082C246.396 176.993 246.266 177.449 246.006 177.449C245.745 177.449 245.257 177.547 244.541 177.742C243.89 177.938 243.239 178.198 242.588 178.523C241.937 178.784 241.546 179.109 241.416 179.5V179.695C241.416 180.802 244.899 189.298 251.865 205.184L259.287 183.797C259.743 182.495 259.971 181.486 259.971 180.77C259.971 179.793 259.45 179.012 258.408 178.426C257.432 177.775 256.097 177.449 254.404 177.449C254.144 177.449 254.014 177.026 254.014 176.18C254.014 175.398 254.144 174.878 254.404 174.617C255.251 174.682 256.52 174.78 258.213 174.91C259.906 175.04 261.533 175.105 263.096 175.105C264.528 175.105 266.09 175.04 267.783 174.91C269.476 174.78 270.745 174.682 271.592 174.617C271.722 175.138 271.787 175.626 271.787 176.082C271.787 176.993 271.657 177.449 271.396 177.449C270.55 177.449 269.411 177.742 267.979 178.328C266.546 178.914 265.57 179.858 265.049 181.16L247.568 228.328C246.071 232.365 244.378 235.164 242.49 236.727C240.602 238.354 238.877 239.168 237.314 239.168ZM305.186 217.586C300.889 217.586 296.852 216.74 293.076 215.047C289.365 213.354 286.077 211.043 283.213 208.113C280.413 205.184 278.2 201.798 276.572 197.957C275.01 194.051 274.229 189.917 274.229 185.555C274.229 180.932 275.042 176.603 276.67 172.566C278.298 168.465 280.576 164.884 283.506 161.824C286.436 158.699 289.821 156.258 293.662 154.5C297.568 152.742 301.768 151.863 306.26 151.863C310.101 151.863 314.007 152.059 317.979 152.449C321.95 152.84 325.954 153.458 329.99 154.305L329.795 168.367C329.795 169.344 329.111 169.832 327.744 169.832C327.093 169.832 326.67 169.669 326.475 169.344C326.279 168.497 326.019 167.651 325.693 166.805C325.433 165.893 324.847 164.721 323.936 163.289C322.373 161.01 320.127 159.22 317.197 157.918C314.333 156.616 310.785 155.965 306.553 155.965C303.363 155.965 300.368 156.746 297.568 158.309C294.769 159.806 292.295 161.857 290.146 164.461C288.063 167.065 286.436 170.027 285.264 173.348C284.092 176.603 283.506 179.988 283.506 183.504C283.506 188.908 284.417 193.758 286.24 198.055C288.063 202.482 290.928 206.16 294.834 209.09C298.805 211.954 303.493 213.387 308.896 213.387C315.342 213.387 320.322 211.499 323.838 207.723C324.88 206.616 325.693 205.314 326.279 203.816C326.865 202.319 327.321 201.017 327.646 199.91C327.972 198.803 328.298 198.25 328.623 198.25C329.014 198.25 329.469 198.315 329.99 198.445C330.576 198.51 331.032 198.641 331.357 198.836L331.846 199.129C331.846 199.52 331.715 200.431 331.455 201.863C331.195 203.296 330.869 204.891 330.479 206.648C330.088 208.341 329.697 209.839 329.307 211.141C328.981 212.443 328.721 213.159 328.525 213.289C323.708 216.154 315.928 217.586 305.186 217.586ZM337.51 217.293C337.249 217.033 337.119 216.479 337.119 215.633C337.119 214.852 337.249 214.461 337.51 214.461C338.031 214.461 338.747 214.363 339.658 214.168C340.57 213.973 341.416 213.712 342.197 213.387C342.979 213.061 343.402 212.768 343.467 212.508C343.727 211.596 343.89 210.555 343.955 209.383C344.085 208.211 344.15 206.974 344.15 205.672V187.215C344.15 184.741 343.695 182.983 342.783 181.941C342.132 181.095 341.351 180.574 340.439 180.379C339.528 180.118 338.747 179.988 338.096 179.988C337.445 179.923 337.119 179.826 337.119 179.695C337.119 178.133 337.314 177.319 337.705 177.254C341.156 176.733 343.792 176.31 345.615 175.984C347.438 175.594 349.066 175.236 350.498 174.91L351.67 174.617C351.93 174.552 352.093 174.812 352.158 175.398C352.223 175.984 352.223 176.408 352.158 176.668C352.028 177.97 351.898 179.207 351.768 180.379C351.702 181.551 351.67 182.658 351.67 183.699V203.816C351.67 205.704 351.735 207.365 351.865 208.797C351.995 210.229 352.191 211.466 352.451 212.508C352.581 212.768 353.037 213.061 353.818 213.387C354.6 213.712 355.446 213.973 356.357 214.168C357.269 214.363 357.92 214.461 358.311 214.461C358.506 214.461 358.636 214.852 358.701 215.633C358.766 216.414 358.734 216.967 358.604 217.293L348.154 216.805L337.51 217.293ZM347.178 163.973C345.876 163.973 344.736 163.484 343.76 162.508C342.783 161.531 342.295 160.392 342.295 159.09C342.295 157.723 342.783 156.583 343.76 155.672C344.736 154.695 345.876 154.207 347.178 154.207C348.545 154.207 349.684 154.695 350.596 155.672C351.572 156.583 352.061 157.723 352.061 159.09C352.061 160.392 351.572 161.531 350.596 162.508C349.684 163.484 348.545 163.973 347.178 163.973ZM365.146 217.293C364.886 217.033 364.756 216.479 364.756 215.633C364.756 214.852 364.886 214.461 365.146 214.461C365.667 214.461 366.383 214.363 367.295 214.168C368.206 213.973 369.053 213.712 369.834 213.387C370.615 213.061 371.038 212.768 371.104 212.508C371.364 211.596 371.527 210.555 371.592 209.383C371.722 208.211 371.787 206.974 371.787 205.672V187.215C371.787 184.741 371.331 182.983 370.42 181.941C369.769 181.16 368.988 180.639 368.076 180.379C367.23 180.118 366.449 179.988 365.732 179.988C365.081 179.923 364.756 179.826 364.756 179.695C364.756 178.133 364.951 177.319 365.342 177.254C372.438 176.147 376.54 175.431 377.646 175.105L379.307 174.617C379.567 174.552 379.73 174.812 379.795 175.398C379.86 175.984 379.86 176.408 379.795 176.668L379.209 181.551C380.381 179.793 381.976 178.165 383.994 176.668C386.077 175.105 388.128 174.324 390.146 174.324C393.923 174.324 396.462 175.268 397.764 177.156C397.764 179.435 397.406 181.095 396.689 182.137C395.973 183.178 395.094 183.699 394.053 183.699C392.881 183.699 391.807 183.146 390.83 182.039C389.854 180.932 388.519 180.379 386.826 180.379C385.524 180.379 384.287 180.835 383.115 181.746C381.943 182.592 380.999 183.699 380.283 185.066C379.632 186.368 379.307 187.736 379.307 189.168V203.816C379.307 205.704 379.372 207.365 379.502 208.797C379.632 210.229 379.827 211.466 380.088 212.508C380.218 212.768 380.674 213.061 381.455 213.387C382.236 213.712 383.083 213.973 383.994 214.168C384.971 214.363 385.654 214.461 386.045 214.461C386.24 214.461 386.37 214.852 386.436 215.633C386.501 216.414 386.468 216.967 386.338 217.293L375.791 216.805L365.146 217.293ZM421.982 217.586C418.402 217.586 415.114 216.642 412.119 214.754C409.124 212.866 406.715 210.359 404.893 207.234C403.135 204.044 402.256 200.496 402.256 196.59C402.256 192.553 402.972 188.875 404.404 185.555C405.902 182.169 408.05 179.467 410.85 177.449C413.714 175.431 417.165 174.422 421.201 174.422C428.363 174.422 433.311 176.082 436.045 179.402C436.045 183.764 434.84 185.945 432.432 185.945C431.325 185.945 430.479 185.717 429.893 185.262C429.307 184.741 428.558 183.829 427.646 182.527C425.628 179.533 423.219 178.035 420.42 178.035C417.751 178.035 415.309 179.305 413.096 181.844C410.947 184.383 409.873 188.159 409.873 193.172C409.873 198.38 411.143 202.71 413.682 206.16C416.286 209.611 419.867 211.336 424.424 211.336C427.158 211.336 429.437 210.945 431.26 210.164C433.148 209.318 434.515 208.569 435.361 207.918L436.045 207.43C436.436 207.43 436.631 207.853 436.631 208.699C436.631 209.155 436.436 209.741 436.045 210.457C434.743 212.28 432.822 213.94 430.283 215.438C427.744 216.87 424.977 217.586 421.982 217.586ZM440.049 217.293C439.788 217.033 439.658 216.479 439.658 215.633C439.658 214.852 439.788 214.461 440.049 214.461C440.57 214.461 441.286 214.363 442.197 214.168C443.109 213.973 443.955 213.712 444.736 213.387C445.518 213.061 445.941 212.768 446.006 212.508C446.266 211.596 446.429 210.555 446.494 209.383C446.624 208.211 446.689 206.974 446.689 205.672V163.387C446.689 161.173 446.494 159.09 446.104 157.137C445.843 156.095 444.183 155.574 441.123 155.574H440.244C439.854 155.574 439.658 155.216 439.658 154.5C439.658 153.458 439.854 152.938 440.244 152.938C444.15 152.482 447.048 151.961 448.936 151.375C450.824 150.789 452.126 150.268 452.842 149.812L453.818 149.227H454.014C454.274 149.227 454.535 149.422 454.795 149.812C455.055 150.138 455.218 150.464 455.283 150.789C454.567 152.938 454.209 155.77 454.209 159.285V203.816C454.209 205.704 454.274 207.365 454.404 208.797C454.535 210.229 454.73 211.466 454.99 212.508C455.12 212.768 455.576 213.061 456.357 213.387C457.139 213.712 457.985 213.973 458.896 214.168C459.808 214.363 460.459 214.461 460.85 214.461C461.045 214.461 461.175 214.852 461.24 215.633C461.305 216.414 461.273 216.967 461.143 217.293L450.693 216.805L440.049 217.293ZM486.045 217.586C482.464 217.586 479.176 216.642 476.182 214.754C473.187 212.866 470.778 210.359 468.955 207.234C467.197 204.044 466.318 200.496 466.318 196.59C466.318 192.033 467.165 188.094 468.857 184.773C470.55 181.453 472.861 178.914 475.791 177.156C478.721 175.333 482.008 174.422 485.654 174.422C488.649 174.422 491.286 175.008 493.564 176.18C495.843 177.286 497.601 178.719 498.838 180.477C500.01 182.299 500.856 184.155 501.377 186.043C501.963 187.866 502.256 189.689 502.256 191.512C502.256 192.814 502.061 193.628 501.67 193.953C501.279 194.214 500.531 194.344 499.424 194.344H474.814C474.294 194.344 474.033 194.507 474.033 194.832C474.033 197.566 474.587 200.203 475.693 202.742C476.8 205.216 478.428 207.267 480.576 208.895C482.725 210.522 485.361 211.336 488.486 211.336C491.221 211.336 493.499 210.945 495.322 210.164C497.21 209.318 498.577 208.569 499.424 207.918L500.107 207.43C500.498 207.43 500.693 207.853 500.693 208.699C500.693 209.155 500.498 209.741 500.107 210.457C498.805 212.28 496.885 213.94 494.346 215.438C491.807 216.87 489.04 217.586 486.045 217.586ZM474.814 190.242H493.857C494.183 190.242 494.346 189.917 494.346 189.266C494.346 187.833 493.955 186.271 493.174 184.578C492.458 182.82 491.351 181.29 489.854 179.988C488.356 178.686 486.468 178.035 484.189 178.035C482.106 178.035 480.316 178.751 478.818 180.184C477.321 181.551 476.182 183.146 475.4 184.969C474.619 186.727 474.229 188.257 474.229 189.559C474.229 190.014 474.424 190.242 474.814 190.242Z" fill="#838383"/>
<path d="M447.915 221.111C440.591 264.876 418.063 304.655 384.296 333.443C350.529 362.232 307.688 378.186 263.316 378.495C218.944 378.805 175.884 363.451 141.719 335.137C107.553 306.822 84.4717 267.363 76.5377 223.704" stroke="#838383" stroke-width="3"/>
<path d="M74.7117 168.661C79.7349 124.573 100.151 83.6703 132.365 53.1538C164.578 22.6372 206.525 4.46342 250.821 1.83179C295.116 -0.799832 338.92 12.2794 374.52 38.767C410.121 65.2546 435.236 103.452 445.444 146.636" stroke="#838383" stroke-width="3"/>
</svg>
